<svg width="700" height="454" viewBox="0 0 700 454" fill="none" xmlns="http://www.w3.org/2000/svg">
<g filter="url(#filter0_d_2178_171)">
<path d="M43.3226 21.269C52.6015 15.9491 100.267 7.68739 164.271 53.8936C277.412 97.1627 326.222 91.2221 477.976 25.8439C615.961 -29.504 689.847 21.269 689.847 21.269V414.604C689.847 414.604 520.733 360.381 465.958 414.604C411.183 468.827 181.607 439.469 142.995 414.604C104.383 389.738 43.3226 414.604 43.3226 414.604C43.3226 414.604 34.0438 26.5889 43.3226 21.269Z" fill="#D9D9D9"/>
</g>
<g filter="url(#filter1_d_2178_171)">
<path d="M106.342 48.9521C106.342 75.9875 85.2278 97.9041 59.182 97.9041C33.1363 97.9041 12.0221 75.9875 12.0221 48.9521C12.0221 21.9166 33.1363 0 59.182 0C85.2278 0 106.342 21.9166 106.342 48.9521Z" fill="#D9D9D9"/>
<path d="M94.3522 365.896C94.3522 392.931 73.2379 414.848 47.1922 414.848C21.1465 414.848 0.0322321 392.931 0.0322321 365.896C0.0322321 338.86 21.1465 316.944 47.1922 316.944C73.2379 316.944 94.3522 338.86 94.3522 365.896Z" fill="#D9D9D9"/>
<path d="M12.0172 46.463L106.255 51.9559L94.3522 365.896C94.3522 365.896 93.4618 378.729 90.1727 386.072C75.7292 418.322 3.66214 377.955 0.455617 372.484C-2.7509 367.013 12.0172 46.463 12.0172 46.463Z" fill="#D9D9D9"/>
</g>
<g filter="url(#filter2_g_2178_171)">
<ellipse cx="47.1919" cy="372.084" rx="43.9627" ry="39.5664" fill="#D0CCCC"/>
</g>
<g filter="url(#filter3_g_2178_171)">
<ellipse cx="46.3926" cy="372.484" rx="40.7654" ry="36.7688" fill="#D9D9D9"/>
</g>
<g filter="url(#filter4_g_2178_171)">
<ellipse cx="49.1902" cy="374.882" rx="37.9678" ry="32.7722" fill="#BCBABA"/>
</g>
<g filter="url(#filter5_g_2178_171)">
<ellipse cx="49.1904" cy="376.081" rx="34.7705" ry="31.5732" fill="#D9D9D9"/>
</g>
<g filter="url(#filter6_g_2178_171)">
<ellipse cx="51.1887" cy="378.079" rx="32.7722" ry="27.9763" fill="#BCBABA"/>
</g>
<ellipse cx="53.986" cy="378.479" rx="28.3759" ry="22.7807" fill="#B3B3B3"/>
<line x1="598.803" y1="18.3843" x2="598.803" y2="58.6885" stroke="black" stroke-width="0.476034"/>
<line x1="598.803" y1="148.342" x2="598.803" y2="188.646" stroke="black" stroke-width="0.476034"/>
<line x1="643.947" y1="103.832" x2="684.251" y2="103.832" stroke="black" stroke-width="0.476034"/>
<line x1="513.197" y1="103.198" x2="553.501" y2="103.198" stroke="black" stroke-width="0.476034"/>
<line x1="549.068" y1="54.2361" x2="577.551" y2="82.7511" stroke="black" stroke-width="0.476034"/>
<line x1="620.155" y1="125.006" x2="648.639" y2="153.521" stroke="black" stroke-width="0.476034"/>
<line x1="619.819" y1="82.7195" x2="648.334" y2="54.2358" stroke="black" stroke-width="0.476034"/>
<line x1="548.414" y1="153.49" x2="576.929" y2="125.006" stroke="black" stroke-width="0.476034"/>
<path d="M629.507 103.198H625.105L617.097 104.403C616.847 108.572 615.222 112.37 612.668 115.35L614.9 118.255L614.68 118.479L611.768 116.328C608.735 119.397 604.64 121.413 600.079 121.781L598.835 131.363L598.823 134.218C607.241 134.149 614.858 130.719 620.398 125.203L620.099 124.904L620.155 124.848L620.211 124.792L620.51 125.091C626.071 119.496 629.507 111.788 629.507 103.277C629.507 103.251 629.507 103.224 629.507 103.198ZM597.579 141.017C597.579 140.759 597.644 140.515 597.772 140.289C597.904 140.05 598.103 139.861 598.362 139.72L598.364 139.719L598.416 139.693C598.527 139.639 598.646 139.598 598.772 139.568C598.431 139.646 598.143 139.791 597.903 139.999L597.902 140C597.541 140.313 597.348 140.793 597.348 141.474C597.348 141.892 597.438 142.213 597.604 142.449L597.637 142.495C597.799 142.71 598.046 142.923 598.384 143.131L598.458 143.175L598.459 143.176L598.46 143.177L599.638 143.898C599.925 144.073 600.149 144.257 600.301 144.454C600.462 144.658 600.537 144.915 600.537 145.211C600.537 145.709 600.374 146.108 600.03 146.381C599.887 146.495 599.72 146.582 599.529 146.645C599.823 146.553 600.07 146.414 600.271 146.231L600.308 146.197C600.679 145.843 600.869 145.364 600.869 144.744C600.869 144.449 600.821 144.214 600.733 144.031L600.731 144.029L600.73 144.026C600.645 143.832 600.522 143.67 600.359 143.537L600.354 143.533C600.188 143.386 599.953 143.218 599.645 143.031L598.693 142.474C598.368 142.287 598.102 142.093 597.899 141.891L597.897 141.889C597.68 141.664 597.579 141.367 597.579 141.017ZM596.068 146.196C596.116 146.106 596.17 146.027 596.233 145.969C596.304 145.902 596.394 145.855 596.498 145.855C596.584 145.855 596.66 145.89 596.723 145.935L596.767 145.969C596.813 146.006 596.863 146.051 596.915 146.104L596.967 146.153C597.096 146.268 597.288 146.399 597.551 146.545L597.603 146.573C597.869 146.709 598.183 146.779 598.55 146.779C598.726 146.779 598.891 146.769 599.047 146.748C598.915 146.764 598.777 146.771 598.631 146.771C598.278 146.771 597.95 146.661 597.65 146.448L597.59 146.403C597.277 146.163 597.028 145.844 596.842 145.452L596.842 145.449C596.664 145.059 596.575 144.641 596.573 144.198L596.068 146.196ZM599.413 139.5C599.27 139.5 599.134 139.509 599.005 139.526C599.106 139.514 599.212 139.508 599.322 139.508C599.682 139.508 600.005 139.658 600.287 139.94C600.563 140.216 600.771 140.555 600.913 140.953C601.011 141.214 601.072 141.465 601.097 141.708L601.5 139.899C601.489 139.918 601.478 139.936 601.466 139.955C601.359 140.123 601.212 140.252 601.018 140.252C600.947 140.252 600.878 140.236 600.815 140.204L600.806 140.2L600.798 140.195C600.747 140.161 600.686 140.111 600.617 140.048L600.617 140.048C600.48 139.924 600.296 139.799 600.06 139.675L600.059 139.674C599.842 139.556 599.628 139.5 599.413 139.5ZM575.418 126.468C581.339 132.338 589.489 135.965 598.486 135.965C598.543 135.965 598.6 135.964 598.656 135.964L598.663 134.536C598.63 134.536 598.598 134.537 598.565 134.537C589.945 134.537 582.139 131.047 576.484 125.403L575.418 126.468ZM620.622 125.427C615.025 131.001 607.328 134.467 598.821 134.535L598.815 135.963C607.709 135.875 615.754 132.245 621.608 126.414L620.622 125.427ZM598.639 130.411L598.682 130.077L598.719 121.841C598.667 121.842 598.616 121.842 598.565 121.842C598.188 121.842 597.813 121.831 597.441 121.809L598.639 130.411ZM599.756 121.805C599.465 121.823 599.172 121.835 598.877 121.839L598.847 128.811L599.756 121.805ZM577.5 119.659C577.483 119.753 577.474 119.857 577.474 119.97C577.474 120.223 577.528 120.41 577.623 120.545L577.642 120.573C577.731 120.69 577.865 120.809 578.049 120.928L578.138 120.982L578.141 120.983L578.876 121.434C579.059 121.546 579.206 121.666 579.307 121.796C579.418 121.936 579.467 122.111 579.467 122.306C579.467 122.406 579.456 122.5 579.435 122.589C579.515 122.427 579.556 122.237 579.556 122.014C579.556 121.835 579.526 121.698 579.476 121.594L579.475 121.591L579.474 121.589C579.424 121.476 579.353 121.382 579.259 121.305L579.256 121.303L579.254 121.301C579.153 121.212 579.01 121.11 578.819 120.994L578.225 120.646C578.019 120.528 577.848 120.404 577.717 120.273L577.716 120.272L577.715 120.271C577.566 120.117 577.499 119.915 577.499 119.684C577.499 119.676 577.5 119.667 577.5 119.659ZM582.076 119.253C582.076 119.145 582.089 119.037 582.134 118.955L582.135 118.953L582.136 118.951C582.144 118.936 582.154 118.922 582.164 118.91H581.711C581.79 118.99 581.821 119.106 581.834 119.216L581.835 119.225V123.088L582.076 122.706V119.253ZM614.631 119.659C614.613 119.753 614.604 119.857 614.604 119.97C614.604 120.223 614.659 120.41 614.753 120.545L614.773 120.573C614.862 120.69 614.995 120.809 615.18 120.928L615.269 120.982L615.271 120.983L616.007 121.434C616.19 121.546 616.337 121.666 616.438 121.796C616.549 121.936 616.597 122.111 616.597 122.306C616.597 122.406 616.587 122.5 616.566 122.589C616.645 122.427 616.686 122.237 616.686 122.014C616.686 121.835 616.657 121.698 616.607 121.594L616.605 121.591L616.604 121.589C616.555 121.476 616.484 121.382 616.389 121.305L616.387 121.303L616.384 121.301C616.285 121.213 616.142 121.111 615.952 120.996L615.356 120.646C615.149 120.528 614.979 120.404 614.848 120.273L614.847 120.272L614.846 120.271C614.697 120.117 614.63 119.915 614.63 119.684C614.63 119.676 614.63 119.667 614.631 119.659ZM622.111 118.593L621.755 120.357H621.263L621.312 120.16C621.313 120.159 621.314 120.153 621.315 120.141C621.317 120.127 621.319 120.108 621.321 120.085C621.325 120.035 621.327 119.972 621.327 119.894C621.327 119.566 621.275 119.374 621.207 119.278L621.193 119.26C621.117 119.17 620.996 119.113 620.8 119.113H619.759C619.729 119.113 619.72 119.12 619.718 119.122C619.716 119.123 619.705 119.132 619.697 119.166L619.696 119.167L619.287 120.674H619.765C619.9 120.674 619.993 120.639 620.059 120.582C620.143 120.505 620.202 120.418 620.239 120.32L620.24 120.318L620.241 120.316C620.288 120.201 620.335 120.06 620.38 119.891L620.412 119.773H620.898L620.3 122.029L620.268 122.147H619.789L619.833 121.953C619.873 121.774 619.892 121.628 619.892 121.512C619.892 121.383 619.866 121.303 619.832 121.254L619.831 121.252L619.829 121.25C619.814 121.226 619.779 121.195 619.67 121.195H619.15L618.682 122.909H619.822C619.909 122.909 620.019 122.888 620.157 122.841C620.283 122.794 620.397 122.722 620.499 122.623C620.606 122.516 620.705 122.385 620.796 122.227L620.796 122.226L620.866 122.102C620.933 121.982 620.986 121.873 621.028 121.774L621.099 121.605C621.116 121.563 621.127 121.535 621.132 121.519L621.168 121.411H621.651L621.018 123.429H616.991L617.122 122.909H617.728C617.758 122.909 617.767 122.902 617.769 122.9C617.771 122.899 617.781 122.889 617.79 122.856L617.79 122.854L618.805 119.113H618.159L618.289 118.593H622.111ZM620.956 122.567C620.883 122.671 620.805 122.766 620.722 122.849L620.72 122.852C620.605 122.962 620.476 123.05 620.334 123.112H620.785L620.956 122.567ZM576.733 122.692C576.776 122.666 576.826 122.649 576.883 122.649L576.909 122.65C576.968 122.656 577.018 122.681 577.058 122.71L577.089 122.733C577.12 122.758 577.152 122.788 577.186 122.822L577.216 122.85C577.262 122.891 577.323 122.936 577.4 122.986C577.256 122.847 577.138 122.678 577.045 122.481L577.044 122.479C576.978 122.334 576.93 122.182 576.902 122.025L576.733 122.692ZM613.864 122.692C613.907 122.666 613.957 122.649 614.014 122.649L614.04 122.65C614.099 122.656 614.149 122.681 614.189 122.71L614.219 122.733C614.25 122.758 614.283 122.788 614.317 122.822L614.347 122.85C614.393 122.891 614.453 122.936 614.53 122.986C614.386 122.847 614.268 122.678 614.175 122.481L614.174 122.479C614.108 122.334 614.061 122.182 614.033 122.025L613.864 122.692ZM597.396 121.488C597.783 121.513 598.173 121.525 598.565 121.525C598.617 121.525 598.668 121.524 598.72 121.524L598.723 120.889C598.644 120.89 598.565 120.89 598.486 120.89C598.09 120.89 597.697 120.877 597.308 120.851L597.396 121.488ZM599.881 120.836C599.55 120.862 599.217 120.878 598.881 120.886L598.879 121.522C599.187 121.517 599.493 121.504 599.797 121.484L599.881 120.836ZM585.973 116.484C588.911 119.286 592.782 121.117 597.073 121.465L596.984 120.827C592.92 120.486 589.246 118.77 586.43 116.147L585.973 116.484ZM610.968 115.737C608.149 118.542 604.39 120.404 600.205 120.808L600.12 121.459C604.56 121.085 608.547 119.12 611.51 116.138L610.968 115.737ZM620.272 120.817L620.27 120.819C620.188 120.891 620.093 120.938 619.988 120.965C620.027 120.993 620.063 121.028 620.092 121.072C620.092 121.073 620.093 121.074 620.093 121.074C620.094 121.075 620.095 121.076 620.095 121.077C620.132 121.13 620.158 121.19 620.177 121.255L620.3 120.79C620.291 120.799 620.282 120.808 620.272 120.817ZM597.263 120.53C597.667 120.558 598.075 120.573 598.486 120.573C598.565 120.573 598.645 120.572 598.724 120.571L598.735 118.192C598.678 118.192 598.622 118.193 598.565 118.193C598.011 118.193 597.464 118.162 596.925 118.103L597.263 120.53ZM600.236 118.1C599.794 118.149 599.346 118.179 598.893 118.189L598.883 120.568C599.232 120.56 599.579 120.542 599.923 120.514L600.236 118.1ZM586.69 115.955C589.433 118.493 592.997 120.157 596.939 120.505L596.599 118.064C593.594 117.668 590.87 116.378 588.705 114.469L586.69 115.955ZM608.795 114.132C606.581 116.219 603.728 117.636 600.561 118.06L600.247 120.485C604.311 120.076 607.961 118.266 610.709 115.546L608.795 114.132ZM579.449 119.15C579.552 119.29 579.635 119.447 579.698 119.622C579.723 119.689 579.744 119.756 579.762 119.822L579.9 119.203C579.846 119.241 579.782 119.265 579.708 119.265C579.655 119.265 579.603 119.254 579.554 119.23L579.546 119.225L579.537 119.22C579.511 119.202 579.481 119.178 579.449 119.15ZM616.58 119.15C616.683 119.29 616.766 119.447 616.828 119.622C616.854 119.689 616.875 119.756 616.893 119.822L617.031 119.203C616.976 119.241 616.913 119.265 616.839 119.265C616.785 119.265 616.733 119.254 616.685 119.23L616.676 119.225L616.668 119.22C616.641 119.202 616.612 119.178 616.58 119.15ZM621.264 118.91C621.328 118.948 621.385 118.996 621.435 119.055L621.463 119.091C621.535 119.19 621.582 119.319 621.61 119.47L621.723 118.91H621.264ZM595.701 109.309L596.88 117.779C597.433 117.843 597.995 117.875 598.565 117.875C598.622 117.875 598.679 117.875 598.736 117.874L598.784 107.035L595.701 109.309ZM598.943 106.918L598.895 117.871C599.362 117.861 599.823 117.829 600.278 117.776L601.455 108.709L598.986 106.886L598.943 106.918ZM588.966 114.276C591.056 116.101 593.671 117.341 596.554 117.738L595.41 109.523L588.966 114.276ZM600.604 117.734C603.65 117.309 606.394 115.943 608.536 113.94L601.746 108.925L600.604 117.734ZM612.19 115.887C612.125 115.958 612.059 116.029 611.992 116.099L613.911 117.516L612.19 115.887ZM584.185 117.308L585.279 116.244C585.229 116.193 585.18 116.142 585.131 116.091L584.185 117.308ZM584.701 117.028L585.484 116.45C585.452 116.419 585.421 116.388 585.39 116.357L584.701 117.028ZM612.456 115.595C612.404 115.654 612.351 115.712 612.298 115.77L613.374 116.789L612.456 115.595ZM585.618 116.136C585.659 116.177 585.7 116.219 585.742 116.26L586.196 115.925C586.136 115.866 586.075 115.808 586.016 115.748L585.618 116.136ZM585.328 115.838C585.387 115.9 585.446 115.961 585.506 116.023L585.904 115.636C585.825 115.557 585.748 115.477 585.671 115.396L585.328 115.838ZM611.475 115.21C611.382 115.311 611.288 115.41 611.193 115.508L611.734 115.908C611.81 115.829 611.885 115.75 611.96 115.669L611.475 115.21ZM586.243 115.527C586.313 115.596 586.384 115.665 586.455 115.734L588.464 114.252C588.308 114.108 588.155 113.962 588.006 113.812L586.243 115.527ZM580.348 104.336C580.596 108.67 582.356 112.598 585.109 115.602L585.452 115.162C582.815 112.291 581.115 108.547 580.835 104.414L580.348 104.336ZM611.844 114.799C611.758 114.898 611.671 114.996 611.583 115.093L612.067 115.552C612.132 115.481 612.195 115.41 612.259 115.338L611.844 114.799ZM585.868 115.143C585.955 115.234 586.043 115.325 586.131 115.414L587.894 113.699C587.726 113.526 587.562 113.35 587.402 113.17L585.868 115.143ZM609.54 113.378C609.373 113.559 609.202 113.736 609.027 113.908L610.935 115.318C611.04 115.211 611.143 115.102 611.245 114.992L609.54 113.378ZM616.127 104.549C615.841 108.343 614.358 111.802 612.055 114.552L612.471 115.093C614.942 112.188 616.519 108.499 616.776 104.451L616.127 104.549ZM581.156 104.465C581.445 108.476 583.096 112.11 585.649 114.907L587.19 112.925C585.306 110.706 584.059 107.928 583.734 104.875L581.156 104.465ZM610.181 112.634C610.009 112.848 609.831 113.057 609.647 113.26L611.352 114.875C611.452 114.765 611.55 114.654 611.647 114.542L610.181 112.634ZM613.387 104.961C613.075 107.735 612.003 110.278 610.384 112.377L611.857 114.294C614.078 111.62 615.512 108.27 615.805 104.597L613.387 104.961ZM588.233 113.59C588.393 113.75 588.557 113.907 588.725 114.06L595.36 109.166L595.052 106.954L588.233 113.59ZM602.039 106.669L601.793 108.565L608.768 113.717C608.954 113.536 609.134 113.35 609.31 113.159L602.398 106.615L602.039 106.669ZM587.6 112.914C587.769 113.107 587.943 113.294 588.122 113.477L595.025 106.759L595.013 106.668L592.736 106.306L587.6 112.914ZM602.598 106.585L609.416 113.042C609.611 112.825 609.8 112.603 609.982 112.375L605.229 106.189L602.598 106.585ZM584.059 104.926C584.389 107.858 585.586 110.526 587.389 112.669L592.378 106.249L584.059 104.926ZM605.587 106.135L610.184 112.117C611.723 110.096 612.748 107.662 613.061 105.01L605.587 106.135ZM595.334 106.679L595.651 108.951L598.786 106.639L598.788 106.13C598.74 106.132 598.693 106.133 598.645 106.133C597.89 106.133 597.206 105.832 596.706 105.344L595.334 106.679ZM600.802 105.104C600.353 105.658 599.694 106.036 598.947 106.117L598.945 106.522L598.986 106.491L601.501 108.349L601.755 106.391L602.106 106.338L600.802 105.104ZM592.958 106.02L595.295 106.392L595.307 106.484L596.595 105.23C596.143 104.736 595.868 104.079 595.868 103.356C595.868 103.303 595.869 103.25 595.872 103.198H595.152L592.958 106.02ZM600.666 104.757C600.942 104.359 601.104 103.877 601.104 103.356C601.104 103.303 601.102 103.25 601.099 103.198H599.02L600.666 104.757ZM580.012 103.962C580.004 103.735 580 103.506 580 103.277C580 103.251 580 103.224 580 103.198H575.208L580.012 103.962ZM605.366 105.847L613.096 104.684C613.141 104.221 613.164 103.752 613.164 103.277C613.164 103.251 613.163 103.224 613.163 103.198H603.33L605.366 105.847ZM596.933 105.123C597.376 105.552 597.979 105.816 598.645 105.816C598.693 105.816 598.741 105.814 598.789 105.811L598.8 103.306L596.933 105.123ZM598.948 105.797C599.604 105.716 600.18 105.377 600.571 104.885L598.959 103.358L598.948 105.797ZM558.237 99.9918C558.237 99.8396 558.199 99.7891 558.179 99.7735L558.172 99.7685C558.13 99.7336 558.054 99.7037 557.918 99.7037H557.187L557.347 99.0613H560.681L560.52 99.7037H559.817C559.689 99.7037 559.606 99.7445 559.546 99.8164C559.486 99.8954 559.448 100.013 559.448 100.185V104.32L561.572 100.973L561.573 100.972L561.618 100.9C561.835 100.545 561.933 100.244 561.933 99.9918C561.933 99.9363 561.912 99.8734 561.85 99.8006L561.848 99.7986L561.846 99.7964C561.788 99.7241 561.736 99.7037 561.686 99.7037H560.924L561.085 99.0613H564.418L564.257 99.7037H563.687C563.492 99.7037 563.329 99.7627 563.189 99.8798C563.042 100.009 562.904 100.178 562.776 100.389L562.775 100.391L558.737 106.792H558.237V101.749L555.05 106.792H554.55V100.002C554.533 99.8624 554.501 99.7966 554.476 99.769L554.466 99.7592C554.432 99.7312 554.363 99.7037 554.232 99.7037H553.45L553.61 99.0613H556.944L556.783 99.7037H555.968C555.835 99.7037 555.807 99.7378 555.801 99.746C555.781 99.7858 555.761 99.8705 555.761 100.022V104.424L557.946 100.923L557.948 100.92C558.142 100.626 558.237 100.318 558.237 99.9918ZM641.666 101.048C641.666 100.52 641.584 100.186 641.455 100.006L641.429 99.9723C641.285 99.8012 641.061 99.7037 640.728 99.7037H639.062C638.998 99.7037 638.961 99.7194 638.938 99.7378C638.914 99.7567 638.888 99.7914 638.871 99.859L638.87 99.8607L638.183 102.392H639.073C639.307 102.392 639.48 102.33 639.607 102.219C639.751 102.086 639.854 101.935 639.919 101.763L639.92 101.761L639.921 101.759C639.999 101.571 640.075 101.341 640.148 101.068L640.18 100.95H640.761L639.804 104.558H639.229L639.273 104.364C639.339 104.073 639.371 103.832 639.371 103.638C639.371 103.42 639.327 103.269 639.257 103.17L639.256 103.168L639.254 103.166C639.206 103.091 639.112 103.035 638.92 103.035H638.016L637.235 105.893C637.229 105.917 637.225 105.935 637.223 105.948C637.222 105.955 637.221 105.959 637.221 105.962L637.221 105.962C637.232 105.964 637.249 105.967 637.275 105.967H639.164C639.316 105.967 639.504 105.931 639.73 105.854C639.945 105.774 640.139 105.651 640.313 105.483C640.49 105.306 640.654 105.088 640.804 104.828L640.804 104.827L640.863 104.726C640.995 104.493 641.101 104.282 641.181 104.094L641.294 103.822C641.322 103.753 641.34 103.706 641.349 103.679L641.385 103.57H641.959L641.007 106.609H634.756L634.887 106.087L634.917 105.967H635.813C635.877 105.967 635.914 105.951 635.937 105.933C635.961 105.914 635.987 105.879 636.004 105.812L636.005 105.81L637.639 99.7794C637.648 99.7437 637.652 99.7209 637.653 99.7082C637.641 99.7058 637.624 99.7037 637.6 99.7037H636.625L636.785 99.0613H642.709L642.178 101.694H641.591L641.64 101.497C641.643 101.484 641.649 101.443 641.656 101.361C641.663 101.278 641.666 101.174 641.666 101.048ZM620.992 81.501C626.407 87.0773 629.761 94.6665 629.824 103.039H631.252C631.211 94.2595 627.716 86.2964 622.057 80.4371L620.992 81.501ZM599.087 74.3036L600.306 84.7927C604.698 85.201 608.646 87.1395 611.613 90.0701L613.459 88.6787H611.945L612.075 88.1582H612.503C612.587 88.1582 612.665 88.1254 612.74 88.0401L612.741 88.0389L612.743 88.0378C612.828 87.9454 612.89 87.8284 612.927 87.6819L612.928 87.6803L612.928 87.6788L613.828 84.3626H613.113L613.243 83.8421H614.633L615.828 87.1741L616.489 84.7587L616.489 84.7575L616.489 84.7562C616.516 84.6648 616.528 84.5892 616.528 84.5277C616.528 84.4443 616.507 84.4109 616.493 84.3972C616.479 84.3835 616.446 84.3627 616.363 84.3626H615.855L615.985 83.8421H618.026L617.895 84.3626H617.467C617.404 84.3626 617.338 84.385 617.267 84.4462L617.236 84.4748C617.155 84.5562 617.088 84.6751 617.042 84.8421L617.042 84.8422L615.97 88.7929H615.483L614.193 85.1703L613.482 87.7618L613.482 87.762C613.46 87.8426 613.449 87.9196 613.449 87.9932C613.449 88.0773 613.47 88.1113 613.483 88.1249C613.496 88.1379 613.527 88.1582 613.608 88.1582H614.116L614.109 88.1861L614.262 88.0372L614.282 88.0578L614.679 87.7587L614.9 87.9826L612.526 91.0395C615.064 93.9328 616.717 97.6216 617.063 101.683L625.64 102.802L625.643 103.039H629.506C629.444 94.7541 626.125 87.2443 620.767 81.7254L619.875 82.617L619.819 82.5609L619.762 82.5048L620.656 81.6118C615.156 76.0039 607.537 72.4812 599.095 72.3394L599.087 74.3036ZM617.087 102.007C617.11 102.348 617.125 102.693 617.129 103.039H624.026L624.479 102.971L617.087 102.007ZM616.13 101.882C616.158 102.264 616.174 102.65 616.178 103.039H616.812C616.807 102.678 616.792 102.32 616.766 101.965L616.13 101.882ZM613.378 101.523C613.437 102.021 613.471 102.527 613.479 103.039H615.86C615.857 102.636 615.839 102.236 615.809 101.84L613.378 101.523ZM603.209 103.039H613.161C613.153 102.512 613.117 101.992 613.054 101.481L605.213 100.458L603.209 103.039ZM600.684 101.472C601.074 101.894 601.335 102.438 601.403 103.039H602.808L602.808 103.039L604.848 100.41L602.139 100.057L600.684 101.472ZM599.075 103.039H601.084C601.017 102.524 600.791 102.058 600.457 101.694L599.075 103.039ZM597.013 101.516C596.58 101.9 596.283 102.435 596.205 103.039H598.622L597.013 101.516ZM595.294 100.006L593.068 100.313L595.277 103.037L595.275 103.039H595.886C595.964 102.35 596.294 101.738 596.782 101.297L595.309 99.9019L595.294 100.006ZM584.068 101.553C584.01 102.042 583.977 102.537 583.969 103.039H594.87L592.701 100.364L584.068 101.553ZM581.155 101.955C581.129 102.313 581.115 102.675 581.112 103.039H583.651C583.659 102.553 583.69 102.072 583.743 101.598L581.155 101.955ZM580.357 102.065C580.336 102.387 580.323 102.712 580.319 103.039H580.794C580.797 102.69 580.81 102.343 580.833 101.999L580.357 102.065ZM573.781 102.971L574.21 103.039H580.001C580.005 102.727 580.017 102.417 580.036 102.109L573.781 102.971ZM598.565 72.3349C589.966 72.3349 582.186 75.8431 576.578 81.5061L577.607 82.5363L577.551 82.5924L577.495 82.6485L576.467 81.6191C571.048 87.1476 567.687 94.7008 567.624 103.039H572.676L572.679 102.803L580.059 101.785C580.397 97.5346 582.167 93.6871 584.886 90.7253L583.05 88.4613L583.267 88.2327L585.642 89.9488C588.67 87.0115 592.697 85.0972 597.164 84.7638L598.725 73.899L598.93 73.9018L598.937 72.3371C598.813 72.3356 598.689 72.3349 598.565 72.3349ZM575.098 80.2486C569.331 86.1251 565.761 94.1652 565.719 103.039H567.307C567.369 94.6132 570.766 86.9805 576.242 81.3946L575.098 80.2486ZM598.645 100.897C598.076 100.897 597.553 101.09 597.136 101.414L598.802 102.991L598.811 100.902C598.756 100.899 598.7 100.897 598.645 100.897ZM598.96 102.929L600.346 101.58C599.978 101.228 599.5 100.988 598.969 100.918L598.96 102.929ZM585.088 90.9744C582.448 93.8648 580.726 97.6072 580.381 101.741L580.858 101.675C581.196 97.7058 582.845 94.11 585.37 91.3228L585.088 90.9744ZM611.975 91.7492C614.265 94.4443 615.761 97.8343 616.103 101.558L616.741 101.642C616.391 97.698 614.786 94.1153 612.328 91.2949L611.975 91.7492ZM585.573 91.5724C583.127 94.2877 581.525 97.7782 581.18 101.631L583.783 101.272C584.174 98.3655 585.401 95.7242 587.216 93.5987L585.573 91.5724ZM610.236 93.9887C611.859 96.025 612.96 98.4952 613.337 101.198L615.78 101.516C615.434 97.9104 613.986 94.6266 611.776 92.0054L610.236 93.9887ZM598.988 99.9834L598.973 99.9727L598.971 100.599C599.59 100.671 600.147 100.948 600.573 101.359L601.938 100.031L601.754 100.007L601.529 98.0683L598.988 99.9834ZM587.419 93.8492C585.682 95.9004 584.502 98.4373 584.11 101.227L592.467 100.075L587.419 93.8492ZM595.336 99.7095L596.903 101.193C597.38 100.809 597.985 100.58 598.645 100.58C598.701 100.58 598.757 100.581 598.812 100.585L598.815 99.8585L595.644 97.5673L595.336 99.7095ZM605.439 100.167L613.01 101.155C612.634 98.5707 611.581 96.206 610.036 94.2467L605.439 100.167ZM602.429 99.7749L605.074 100.12L609.831 93.9929C609.615 93.7303 609.389 93.4755 609.155 93.2288L602.429 99.7749ZM588.112 93.087C587.947 93.2559 587.786 93.4289 587.63 93.6056L592.835 100.025L595.013 99.7247L595.026 99.6345L588.112 93.087ZM601.822 97.8469L602.041 99.7242L602.228 99.7487L609.045 93.1144C608.912 92.977 608.776 92.8421 608.637 92.71L601.822 97.8469ZM598.975 99.5824L598.984 99.5889L601.486 97.7029L600.452 88.7996C599.982 88.739 599.506 88.7009 599.023 88.686L598.975 99.5824ZM598.565 88.6787C598.005 88.6787 597.452 88.7103 596.908 88.7717L595.695 97.2126L598.817 99.4682L598.865 88.682C598.765 88.68 598.665 88.6787 598.565 88.6787ZM588.68 92.5353C588.524 92.6783 588.372 92.8245 588.223 92.974L595.054 99.4422L595.354 97.3573L588.68 92.5353ZM601.78 97.4815L608.402 92.4904C606.321 90.5925 603.691 89.2878 600.776 88.845L601.78 97.4815ZM596.582 88.8124C593.667 89.2084 591.025 90.4651 588.921 92.3181L595.405 97.0026L596.582 88.8124ZM609.382 93.0075C609.606 93.2432 609.822 93.4862 610.031 93.7361L611.565 91.7598C611.427 91.6021 611.286 91.4469 611.143 91.2943L609.382 93.0075ZM586.014 91.1006C585.938 91.1783 585.864 91.2568 585.79 91.336L587.427 93.3558C587.575 93.1901 587.726 93.0277 587.881 92.8688L586.014 91.1006ZM608.894 92.5166C609.022 92.6398 609.148 92.7653 609.272 92.893L611.033 91.179C610.982 91.1257 610.931 91.0728 610.879 91.0201L608.894 92.5166ZM586.298 90.8145C586.24 90.8717 586.182 90.9292 586.125 90.9871L587.993 92.7558C588.131 92.6164 588.273 92.4796 588.417 92.3457L586.298 90.8145ZM600.738 88.5188C603.771 88.9614 606.507 90.3164 608.659 92.2961L610.653 90.7936C607.955 88.1471 604.397 86.3738 600.438 85.9311L600.738 88.5188ZM597.003 85.8851C592.958 86.227 589.309 87.9541 586.53 90.5903L588.657 92.1275C590.837 90.1889 593.589 88.88 596.629 88.4859L597.003 85.8851ZM611.37 91.0728C611.504 91.2145 611.635 91.3584 611.763 91.5044L612.114 91.0533C612.001 90.9284 611.887 90.805 611.771 90.6833L611.37 91.0728ZM585.462 90.5776C585.409 90.6313 585.358 90.6854 585.306 90.7398L585.588 91.0871C585.652 91.0183 585.718 90.9501 585.783 90.8824L585.462 90.5776ZM611.135 90.8274C611.177 90.8706 611.219 90.9141 611.261 90.9577L611.66 90.5689C611.635 90.5424 611.609 90.516 611.583 90.4897L611.135 90.8274ZM613.297 89.198L611.998 90.462C612.104 90.5729 612.208 90.6851 612.311 90.7986L613.918 88.7295L613.297 89.198ZM585.673 90.3628C585.639 90.3964 585.606 90.4303 585.572 90.4642L585.894 90.769C585.942 90.7211 585.989 90.6735 586.037 90.6261L585.673 90.3628ZM600.4 85.6077C604.478 86.0465 608.141 87.8708 610.909 90.6005L611.356 90.263C608.46 87.4157 604.617 85.528 600.343 85.1148L600.4 85.6077ZM585.105 90.4911C585.147 90.447 585.189 90.4031 585.231 90.3594L584.227 89.4084L585.105 90.4911ZM597.117 85.0858C592.775 85.4267 588.859 87.2879 585.903 90.1375L586.268 90.4012C589.12 87.6777 592.88 85.898 597.049 85.563L597.117 85.0858ZM611.839 90.297C611.855 90.3138 611.871 90.3307 611.888 90.3476L612.287 89.959L611.839 90.297ZM585.342 90.2458C585.365 90.2221 585.389 90.1983 585.412 90.1747L584.798 89.731L585.342 90.2458ZM578.138 83.8421L579.332 87.1741L579.993 84.7587L579.993 84.7575L579.994 84.7562C580.02 84.6649 580.032 84.5892 580.032 84.5277C580.032 84.4443 580.011 84.4109 579.997 84.3972C579.983 84.3835 579.95 84.3626 579.867 84.3626H579.359L579.489 83.8421H581.53L581.399 84.3626H580.971C580.908 84.3626 580.842 84.385 580.771 84.4462L580.74 84.4748C580.659 84.5562 580.592 84.6751 580.546 84.8421L580.547 84.8422L579.474 88.7929H578.987L577.697 85.1703L576.986 87.7618L576.986 87.762C576.964 87.8426 576.953 87.9196 576.953 87.9932C576.953 88.0773 576.974 88.1113 576.987 88.1249C577 88.1379 577.031 88.1582 577.112 88.1582H577.62L577.49 88.6787H575.449L575.579 88.1582H576.007C576.091 88.1582 576.169 88.1254 576.244 88.0401L576.245 88.0389L576.247 88.0378C576.332 87.9454 576.395 87.8284 576.431 87.6819L576.432 87.6803L576.432 87.6788L577.332 84.3626H576.617L576.747 83.8421H578.138ZM582.679 84.5023C582.679 84.3943 582.691 84.2869 582.736 84.2041L582.737 84.2021L582.738 84.2002C582.747 84.1853 582.757 84.1718 582.767 84.1595H582.313C582.393 84.2389 582.424 84.3552 582.436 84.4651L582.437 84.4742V88.3372L582.679 87.9554V84.5023ZM622.079 83.8421L621.723 85.6067H621.231L621.28 85.4095C621.28 85.4086 621.281 85.403 621.283 85.3903C621.285 85.3765 621.287 85.358 621.289 85.3342C621.292 85.2846 621.294 85.2213 621.294 85.1433C621.294 84.8153 621.243 84.6237 621.174 84.5274L621.161 84.5094C621.085 84.4195 620.964 84.3627 620.768 84.3626H619.727C619.696 84.3627 619.687 84.3699 619.686 84.3712C619.684 84.3729 619.673 84.382 619.665 84.4152L619.664 84.4169L619.255 85.924H619.733C619.868 85.924 619.961 85.8886 620.027 85.831C620.11 85.7542 620.17 85.6673 620.207 85.5695L620.208 85.5673L620.208 85.5651C620.256 85.4506 620.302 85.3093 620.348 85.1404L620.379 85.0228H620.866L620.267 87.2787L620.236 87.3966H619.756L619.8 87.2027C619.841 87.0234 619.86 86.8772 619.86 86.7619C619.86 86.6328 619.834 86.5525 619.8 86.5039L619.797 86.4992C619.781 86.4758 619.746 86.4445 619.638 86.4445H619.118L618.65 88.1582H619.79C619.877 88.1582 619.987 88.1379 620.124 88.091C620.25 88.0439 620.364 87.9717 620.467 87.8726C620.573 87.7659 620.672 87.6343 620.763 87.4762L620.764 87.4752L620.834 87.3516C620.9 87.2317 620.954 87.1224 620.996 87.0236L621.066 86.8547C621.084 86.8126 621.094 86.7843 621.099 86.7688L621.136 86.6604H621.618L620.986 88.6787H616.959L617.089 88.1582H617.696C617.726 88.1582 617.735 88.1512 617.737 88.1498C617.739 88.1481 617.749 88.139 617.758 88.1057L617.758 88.104L618.772 84.3626H618.127L618.257 83.8421H622.079ZM599.025 88.3685C599.494 88.3827 599.957 88.4184 600.414 88.4749L600.114 85.8981C599.758 85.865 599.398 85.8426 599.036 85.8313L599.025 88.3685ZM598.486 85.8225C598.096 85.8225 597.71 85.8356 597.327 85.8608L596.955 88.4475C597.484 88.3907 598.021 88.3614 598.565 88.3614C598.666 88.3614 598.766 88.3625 598.866 88.3645L598.877 85.827C598.747 85.8241 598.617 85.8225 598.486 85.8225ZM620.923 87.8162C620.851 87.9208 620.773 88.0153 620.689 88.099L620.687 88.101C620.572 88.212 620.444 88.2991 620.302 88.3614H620.753L620.923 87.8162ZM613.133 88.0296C613.09 88.1103 613.039 88.1842 612.977 88.2509L612.977 88.251C612.94 88.2935 612.899 88.3303 612.856 88.3614H613.271C613.266 88.3567 613.261 88.352 613.257 88.3471C613.173 88.2615 613.138 88.1482 613.133 88.0296ZM576.637 88.0296C576.595 88.1103 576.543 88.1842 576.481 88.2509L576.482 88.251C576.444 88.2935 576.403 88.3303 576.36 88.3614H576.775C576.77 88.3567 576.765 88.352 576.761 88.3471C576.677 88.2615 576.643 88.1482 576.637 88.0296ZM620.24 86.0664L620.237 86.0689C620.156 86.1405 620.06 86.1879 619.956 86.2147C619.995 86.2426 620.03 86.278 620.06 86.3218C620.06 86.3224 620.061 86.323 620.061 86.3237C620.062 86.3245 620.062 86.3254 620.063 86.3263C620.1 86.38 620.126 86.4399 620.144 86.5045L620.268 86.0396C620.259 86.0485 620.25 86.0577 620.24 86.0664ZM599.037 85.5138C599.386 85.5245 599.733 85.545 600.077 85.5757L600.02 85.0865C599.696 85.0608 599.369 85.0434 599.039 85.035L599.037 85.5138ZM598.565 85.0291C598.188 85.0291 597.813 85.0408 597.441 85.0634L597.373 85.5397C597.741 85.5169 598.112 85.5052 598.486 85.5052C598.617 85.5052 598.748 85.5068 598.879 85.5097L598.881 85.0321C598.776 85.0303 598.671 85.0291 598.565 85.0291ZM599.041 84.7177C599.357 84.7256 599.671 84.7415 599.983 84.7651L599.075 76.952L599.041 84.7177ZM597.487 84.7428C597.844 84.7223 598.203 84.7118 598.565 84.7118C598.671 84.7118 598.777 84.7129 598.882 84.7147L598.922 75.6375L598.866 75.153L597.487 84.7428ZM621.232 84.1595C621.296 84.1976 621.353 84.2456 621.403 84.3048L621.431 84.3402C621.503 84.4399 621.55 84.5687 621.578 84.7198L621.691 84.1595H621.232ZM580.222 84.1727C580.305 84.2561 580.34 84.3664 580.347 84.4824C580.394 84.3949 580.449 84.317 580.516 84.2505L580.54 84.2269C580.567 84.2021 580.595 84.1797 580.624 84.1595H580.207C580.212 84.1638 580.217 84.1681 580.222 84.1727ZM616.718 84.1727C616.801 84.2561 616.836 84.3664 616.843 84.4824C616.889 84.3949 616.945 84.317 617.012 84.2505L617.036 84.2269C617.063 84.2021 617.091 84.1797 617.12 84.1595H616.703C616.708 84.1638 616.713 84.1681 616.718 84.1727ZM599.097 72.022C607.626 72.1642 615.323 75.7225 620.881 81.3876L621.947 80.3229C616.129 74.3572 608.055 70.602 599.104 70.4365L599.097 72.022ZM598.486 70.4308C589.383 70.4308 581.147 74.143 575.209 80.1358L576.354 81.2818C582.019 75.5613 589.878 72.0175 598.565 72.0175C598.69 72.0175 598.814 72.0184 598.938 72.0199L598.945 70.4339C598.792 70.4318 598.639 70.4308 598.486 70.4308ZM598.486 45.677C582.552 45.677 568.132 52.1557 557.715 62.6224L574.985 79.9113C580.98 73.8611 589.295 70.1134 598.486 70.1134C598.64 70.1134 598.793 70.1144 598.947 70.1165L598.961 66.7815L599.041 66.7819L599.12 66.7822L599.105 70.119C608.144 70.2849 616.296 74.0757 622.171 80.0986L639.461 62.8282C629.114 52.328 614.763 45.7856 598.883 45.6784V58.5299H598.724V45.6778C598.645 45.6774 598.565 45.677 598.486 45.677ZM598.248 59.3918L600.238 64.944L601.375 60.7883L601.375 60.7869L601.376 60.7856C601.42 60.6333 601.44 60.5032 601.44 60.3934C601.44 60.2453 601.403 60.1632 601.357 60.1171C601.311 60.0711 601.229 60.0343 601.081 60.0342H600.39L600.551 59.3918H603.62L603.46 60.0342H602.848C602.712 60.0342 602.577 60.0877 602.439 60.2151L602.412 60.2416C602.267 60.3864 602.153 60.593 602.077 60.8718L600.38 67.1227H599.74L597.599 61.1049L596.38 65.5437L596.38 65.5435C596.343 65.6799 596.325 65.8115 596.325 65.9383C596.325 66.0872 596.361 66.1696 596.406 66.2156C596.451 66.2609 596.53 66.2975 596.674 66.2975H597.364L597.204 66.9398H594.135L594.265 66.4176L594.295 66.2975H594.907C595.072 66.2975 595.22 66.2303 595.357 66.0766L595.358 66.0753L595.359 66.0742C595.508 65.9133 595.615 65.7112 595.677 65.4631L595.677 65.4615L595.678 65.46L597.129 60.1099C597.135 60.0854 597.14 60.0665 597.142 60.0527C597.143 60.0464 597.144 60.0421 597.144 60.0395C597.134 60.0368 597.116 60.0342 597.09 60.0342H596.003L596.164 59.3918H598.248ZM597.896 141.017C597.896 141.302 597.977 141.513 598.124 141.666L598.193 141.733C598.338 141.866 598.52 141.999 598.739 142.133L598.852 142.2L598.854 142.2L599.808 142.759L599.809 142.76L599.81 142.76C600.123 142.951 600.374 143.128 600.559 143.291L600.597 143.322C600.781 143.481 600.923 143.674 601.021 143.898C601.134 144.135 601.187 144.419 601.187 144.744C601.187 145.436 600.971 146.002 600.528 146.426L600.484 146.466C600.013 146.893 599.361 147.096 598.55 147.096C598.142 147.096 597.777 147.018 597.459 146.856L597.396 146.822C597.126 146.672 596.909 146.528 596.754 146.388L596.691 146.329C596.642 146.28 596.602 146.243 596.569 146.217L596.538 146.193C596.507 146.171 596.495 146.172 596.498 146.172C596.495 146.172 596.479 146.173 596.449 146.201C596.418 146.23 596.379 146.283 596.336 146.369L596.335 146.37L596.335 146.371C596.245 146.545 596.174 146.721 596.123 146.9L596.09 147.015H595.533L596.426 143.489H596.97L596.94 143.673C596.907 143.87 596.891 144.041 596.891 144.185C596.891 144.59 596.971 144.966 597.129 145.316L597.161 145.381C597.323 145.703 597.531 145.958 597.783 146.152L597.833 146.189C598.084 146.368 598.349 146.454 598.631 146.454C599.181 146.454 599.573 146.339 599.832 146.133C600.084 145.933 600.219 145.635 600.219 145.211C600.219 144.967 600.159 144.785 600.051 144.65L600.05 144.649L600.049 144.648C599.93 144.493 599.741 144.332 599.473 144.169L599.472 144.169L598.294 143.448C597.898 143.213 597.591 142.96 597.384 142.687L597.343 142.631C597.13 142.326 597.03 141.936 597.03 141.474C597.03 140.733 597.243 140.151 597.694 139.76C598.142 139.371 598.72 139.183 599.413 139.183C599.685 139.183 599.951 139.255 600.208 139.394L600.301 139.444C600.511 139.562 600.688 139.684 600.83 139.813C600.889 139.867 600.934 139.902 600.965 139.924C600.98 139.93 600.997 139.934 601.018 139.934C601.054 139.934 601.117 139.913 601.199 139.784C601.286 139.647 601.347 139.513 601.382 139.381L601.414 139.264H601.967L601.307 142.222H600.778L600.788 142.053C600.807 141.755 600.751 141.426 600.615 141.063L600.615 141.062L600.614 141.06C600.486 140.701 600.301 140.403 600.063 140.164C599.83 139.932 599.584 139.825 599.322 139.825C598.996 139.825 598.728 139.886 598.512 140L598.512 140C598.299 140.115 598.148 140.264 598.049 140.443L598.048 140.445C597.946 140.625 597.896 140.815 597.896 141.017ZM577.816 119.684C577.816 119.851 577.863 119.967 577.943 120.05C578.035 120.142 578.158 120.236 578.315 120.331L578.384 120.372L578.385 120.373L578.982 120.722L578.983 120.722L578.984 120.723C579.183 120.844 579.344 120.957 579.464 121.063C579.595 121.172 579.696 121.305 579.764 121.462C579.839 121.619 579.873 121.805 579.873 122.014C579.873 122.445 579.742 122.806 579.471 123.081L579.415 123.134C579.106 123.414 578.682 123.543 578.166 123.543C577.903 123.543 577.665 123.493 577.457 123.387L577.416 123.365C577.245 123.27 577.105 123.177 577.003 123.085L576.962 123.046C576.929 123.014 576.903 122.992 576.885 122.977C576.872 122.991 576.855 123.016 576.835 123.056L576.834 123.057L576.834 123.058C576.779 123.163 576.737 123.27 576.706 123.378L576.673 123.493H576.204L576.792 121.17H577.248L577.218 121.354C577.198 121.475 577.188 121.578 577.188 121.665C577.188 121.909 577.236 122.137 577.332 122.348C577.433 122.56 577.563 122.724 577.723 122.846L577.752 122.868C577.9 122.973 578.054 123.023 578.216 123.023C578.553 123.023 578.783 122.952 578.93 122.835L578.956 122.814C579.08 122.702 579.149 122.541 579.149 122.306C579.149 122.163 579.114 122.063 579.057 121.992L579.056 121.991L579.055 121.99C578.987 121.901 578.875 121.805 578.711 121.705L578.711 121.705L577.975 121.254C577.723 121.105 577.525 120.943 577.389 120.764L577.363 120.727C577.22 120.524 577.156 120.267 577.156 119.97C577.156 119.495 577.293 119.113 577.592 118.854C577.885 118.599 578.261 118.478 578.705 118.478C578.887 118.478 579.063 118.527 579.231 118.618C579.391 118.702 579.525 118.792 579.631 118.888C579.663 118.917 579.686 118.936 579.702 118.948C579.704 118.948 579.706 118.948 579.708 118.948C579.708 118.948 579.709 118.948 579.71 118.948C579.711 118.947 579.714 118.946 579.719 118.943C579.73 118.935 579.748 118.917 579.771 118.882C579.823 118.8 579.858 118.722 579.879 118.646L579.91 118.529H580.375L579.937 120.497H579.495L579.505 120.328C579.516 120.152 579.483 119.955 579.401 119.734L579.4 119.733L579.4 119.731C579.322 119.514 579.211 119.336 579.069 119.194C578.932 119.057 578.793 118.999 578.648 118.999C578.452 118.999 578.295 119.035 578.17 119.101C578.046 119.169 577.96 119.254 577.905 119.355L577.904 119.356C577.845 119.46 577.816 119.568 577.816 119.684ZM614.947 119.684C614.947 119.851 614.994 119.967 615.073 120.05C615.166 120.142 615.289 120.236 615.445 120.331L615.515 120.372L615.516 120.373L616.113 120.722L616.114 120.722L616.115 120.723C616.314 120.844 616.475 120.957 616.595 121.063C616.726 121.172 616.827 121.305 616.895 121.462C616.97 121.619 617.004 121.805 617.004 122.014C617.004 122.445 616.873 122.806 616.601 123.081L616.545 123.134C616.236 123.414 615.813 123.543 615.296 123.543C615.034 123.543 614.796 123.493 614.588 123.387L614.546 123.365C614.376 123.27 614.236 123.177 614.134 123.085L614.092 123.046C614.06 123.014 614.034 122.992 614.015 122.977C614.003 122.991 613.986 123.016 613.966 123.056L613.965 123.057L613.965 123.058C613.91 123.163 613.867 123.27 613.837 123.378L613.804 123.493H613.334L613.922 121.17H614.379L614.348 121.354C614.328 121.475 614.319 121.578 614.319 121.665C614.319 121.909 614.367 122.135 614.462 122.346L614.501 122.423C614.596 122.599 614.714 122.739 614.853 122.846L614.883 122.868C615.03 122.973 615.184 123.023 615.347 123.023C615.683 123.023 615.913 122.952 616.061 122.835L616.086 122.814C616.211 122.702 616.28 122.541 616.28 122.306C616.28 122.163 616.245 122.063 616.188 121.992L616.187 121.991L616.186 121.99C616.117 121.901 616.006 121.805 615.842 121.705L615.842 121.705L615.105 121.254C614.854 121.105 614.655 120.943 614.52 120.764L614.493 120.727C614.351 120.524 614.287 120.267 614.287 119.97C614.287 119.495 614.424 119.113 614.723 118.854C615.015 118.599 615.391 118.478 615.836 118.478C616.017 118.478 616.193 118.527 616.362 118.618C616.522 118.702 616.656 118.792 616.761 118.888C616.793 118.917 616.817 118.936 616.833 118.948C616.835 118.948 616.836 118.948 616.839 118.948C616.839 118.948 616.839 118.948 616.84 118.948C616.842 118.947 616.845 118.946 616.85 118.943C616.861 118.935 616.879 118.917 616.901 118.882C616.953 118.8 616.989 118.722 617.009 118.646L617.041 118.529H617.506L617.067 120.497H616.625L616.636 120.328C616.647 120.152 616.614 119.955 616.531 119.734L616.531 119.733L616.53 119.731C616.453 119.514 616.342 119.336 616.2 119.194C616.063 119.057 615.924 118.999 615.779 118.999C615.583 118.999 615.425 119.035 615.301 119.101C615.177 119.169 615.091 119.254 615.035 119.355L615.034 119.356C614.976 119.46 614.947 119.568 614.947 119.684ZM582.394 121.796L583.649 119.784L583.65 119.783L583.651 119.781C583.766 119.607 583.822 119.425 583.822 119.234C583.822 119.192 583.816 119.167 583.812 119.153C583.809 119.147 583.808 119.144 583.807 119.143L583.806 119.142L583.803 119.14C583.791 119.13 583.759 119.113 583.682 119.113H583.149L583.279 118.593H585.485L585.354 119.113H584.869C584.805 119.113 584.771 119.132 584.746 119.161C584.719 119.197 584.697 119.256 584.697 119.354V121.734L585.915 119.815L585.916 119.814L585.943 119.77C586.076 119.554 586.132 119.376 586.132 119.234C586.132 119.216 586.126 119.19 586.094 119.153L586.092 119.151L586.091 119.149C586.063 119.115 586.046 119.113 586.037 119.113H585.484L585.534 118.916L585.614 118.593H587.82L587.69 119.113H587.287C587.18 119.113 587.092 119.145 587.017 119.207C586.93 119.284 586.847 119.384 586.769 119.513L586.768 119.515L584.273 123.469L584.226 123.543H583.822V120.537L581.922 123.543H581.518V119.244C581.512 119.202 581.505 119.174 581.497 119.155C581.493 119.145 581.49 119.139 581.488 119.136L581.487 119.134C581.48 119.129 581.453 119.113 581.378 119.113H580.813L580.943 118.593H583.149L583.019 119.113H582.463C582.434 119.113 582.417 119.117 582.407 119.119C582.401 119.139 582.394 119.18 582.394 119.253V121.796ZM584.139 119.234C584.139 119.317 584.131 119.399 584.115 119.479L584.139 119.441V123.087L584.38 122.705V119.354C584.38 119.209 584.413 119.074 584.495 118.966L584.497 118.964L584.499 118.962C584.514 118.943 584.531 118.926 584.548 118.91H584.022C584.114 118.994 584.139 119.12 584.139 119.234ZM586.449 119.234C586.449 119.312 586.438 119.393 586.418 119.475L586.532 119.293C586.615 119.166 586.707 119.057 586.808 118.968L586.811 118.966C586.835 118.946 586.861 118.927 586.887 118.91H586.302C586.313 118.922 586.324 118.934 586.335 118.946C586.404 119.028 586.449 119.124 586.449 119.234ZM619.137 119.05C619.137 119.087 619.129 119.128 619.12 119.164L619.119 119.166L619.119 119.167L618.097 122.936L618.097 122.936C618.081 123 618.052 123.061 618.005 123.112H618.393C618.368 123.075 618.355 123.034 618.351 122.993L618.35 122.966L618.351 122.939C618.354 122.911 618.361 122.881 618.367 122.858L618.368 122.856L618.368 122.854L618.876 120.994L618.877 120.992H618.872L619.39 119.084C619.407 119.021 619.436 118.96 619.481 118.91H619.096C619.124 118.953 619.137 119.002 619.137 119.05ZM596.185 103.356C596.185 103.993 596.426 104.572 596.823 105.009L598.684 103.198H596.19C596.187 103.25 596.185 103.303 596.185 103.356ZM601.421 103.356C601.421 103.961 601.228 104.521 600.899 104.977L602.305 106.308L605.007 105.901L602.93 103.198H601.417C601.42 103.25 601.421 103.303 601.421 103.356ZM567.623 103.277C567.623 111.776 571.05 119.474 576.597 125.066L576.872 124.791L576.985 124.904L576.709 125.179C582.306 130.765 590.032 134.219 598.565 134.219C598.598 134.219 598.631 134.219 598.664 134.219L598.676 131.622L598.487 131.623L597.118 121.787C592.704 121.446 588.724 119.563 585.714 116.675L583.268 118.479L583.048 118.254L584.912 115.857C582.075 112.779 580.265 108.741 580.027 104.285L573.187 103.198H567.623C567.623 103.224 567.623 103.251 567.623 103.277ZM580.317 103.277C580.317 103.523 580.322 103.769 580.332 104.013L580.815 104.089C580.801 103.794 580.793 103.497 580.793 103.198H581.111C581.111 103.514 581.119 103.828 581.136 104.14L583.703 104.549C583.668 104.129 583.649 103.705 583.649 103.277C583.649 103.251 583.65 103.224 583.65 103.198H580.318C580.318 103.224 580.317 103.251 580.317 103.277ZM583.967 103.277C583.967 103.723 583.987 104.164 584.026 104.6L592.6 105.963L594.75 103.198H583.967C583.967 103.224 583.967 103.251 583.967 103.277ZM613.481 103.277C613.481 103.735 613.46 104.188 613.42 104.635L615.828 104.273C615.85 103.917 615.861 103.559 615.861 103.198H616.178C616.178 103.542 616.168 103.885 616.149 104.225L616.793 104.128C616.806 103.846 616.813 103.562 616.813 103.277C616.813 103.251 616.813 103.224 616.813 103.198H613.48C613.481 103.224 613.481 103.251 613.481 103.277ZM617.13 103.277C617.13 103.546 617.124 103.813 617.113 104.079L622.972 103.198H617.13C617.13 103.224 617.13 103.251 617.13 103.277ZM629.825 103.277C629.825 111.876 626.352 119.663 620.734 125.315L621.72 126.302C627.612 120.378 631.253 112.213 631.253 103.198H629.824C629.824 103.224 629.825 103.251 629.825 103.277ZM540.965 103.198C540.965 119.071 547.395 133.443 557.792 143.851L575.081 126.581C569.1 120.595 565.401 112.328 565.401 103.198H563.18V103.039H565.402C565.444 94.0775 569.049 85.9581 574.874 80.0243L557.603 62.7349C547.369 73.0747 541.029 87.2769 540.966 102.96H553.501V103.118H540.965C540.965 103.145 540.965 103.171 540.965 103.198ZM565.719 103.198C565.719 112.241 569.382 120.428 575.305 126.357L576.372 125.291C570.768 119.641 567.306 111.864 567.306 103.277C567.306 103.251 567.306 103.224 567.306 103.198H565.719ZM631.57 103.198C631.57 112.301 627.893 120.545 621.944 126.527L639.214 143.816C649.47 133.532 655.856 119.389 656.004 103.753H643.947V103.594H656.005C656.006 103.462 656.007 103.33 656.007 103.198C656.007 87.5248 649.738 73.316 639.572 62.9414L622.281 80.2127C627.998 86.1295 631.528 94.1719 631.57 103.039H635.062V103.198H631.57ZM656.165 103.198C656.165 135.053 630.341 160.877 598.486 160.877V160.719C598.565 160.719 598.645 160.718 598.724 160.718V148.183H598.883V160.717C614.58 160.611 628.784 154.217 639.102 143.928L621.832 126.639C615.921 132.527 607.795 136.193 598.814 136.28L598.803 138.663L598.724 138.663L598.645 138.663L598.655 136.281C598.599 136.282 598.542 136.282 598.486 136.282C589.401 136.282 581.172 132.62 575.193 126.692L557.905 143.962C568.306 154.318 582.649 160.719 598.486 160.719V160.877C566.63 160.877 540.806 135.053 540.806 103.198C540.806 71.3423 566.63 45.5183 598.486 45.5183C630.341 45.5183 656.165 71.3423 656.165 103.198ZM641.983 101.054L642.321 99.3786H637.033L637.031 99.3864H637.6C637.685 99.3864 637.777 99.4007 637.852 99.4539C637.937 99.5143 637.972 99.6049 637.972 99.6974C637.972 99.7449 637.961 99.8013 637.947 99.8576L637.946 99.8592L637.946 99.8607L636.311 105.891L636.311 105.891C636.282 106.006 636.226 106.109 636.135 106.181C636.043 106.254 635.931 106.284 635.813 106.284H635.165L635.163 106.292H640.774L641.324 104.537C641.252 104.679 641.17 104.829 641.078 104.987C640.917 105.268 640.736 105.509 640.535 105.71L640.533 105.712C640.329 105.909 640.097 106.057 639.839 106.153L639.837 106.153L639.835 106.154C639.588 106.239 639.363 106.284 639.164 106.284H637.275C637.188 106.284 637.094 106.269 637.019 106.211C636.935 106.148 636.903 106.055 636.903 105.963C636.903 105.92 636.915 105.865 636.928 105.813L636.929 105.811L636.929 105.81L637.773 102.717H638.92C639.175 102.717 639.393 102.796 639.52 102.993C639.638 103.163 639.688 103.384 639.688 103.638C639.688 103.681 639.686 103.727 639.684 103.774L640.145 102.033C640.064 102.19 639.955 102.33 639.819 102.455L639.818 102.456L639.817 102.457C639.619 102.63 639.366 102.71 639.073 102.71H637.768L638.564 99.7777C638.594 99.6632 638.649 99.5615 638.74 99.4893C638.832 99.4163 638.944 99.3864 639.062 99.3864H640.728C641.126 99.3864 641.45 99.5054 641.672 99.7676L641.692 99.7928C641.899 100.058 641.983 100.492 641.983 101.048C641.983 101.05 641.983 101.052 641.983 101.054ZM562.251 99.9918C562.251 100.346 562.105 100.731 561.84 101.143L561.84 101.143L559.131 105.413V100.185C559.131 99.9658 559.18 99.7724 559.295 99.6213L559.297 99.619L559.299 99.6168C559.428 99.4599 559.608 99.3864 559.817 99.3864H560.272L560.274 99.3786H557.595L557.593 99.3864H557.918C558.094 99.3864 558.255 99.4242 558.375 99.5246C558.512 99.6315 558.554 99.8084 558.554 99.9918C558.554 100.384 558.439 100.752 558.213 101.095L555.444 105.532V100.022C555.444 99.8535 555.464 99.7016 555.524 99.5909L555.525 99.5889L555.527 99.5869C555.618 99.431 555.795 99.3864 555.968 99.3864H556.535L556.537 99.3786H553.858L553.856 99.3864H554.232C554.398 99.3864 554.553 99.4198 554.667 99.5136L554.69 99.5334C554.798 99.6369 554.847 99.7993 554.867 99.9737L554.868 99.9827V106.475H554.875L558.554 100.652V106.475H558.562L562.506 100.222C562.648 99.9885 562.807 99.7931 562.983 99.6388L562.984 99.6377L562.985 99.6368C563.184 99.4695 563.421 99.3864 563.687 99.3864H564.009L564.011 99.3786H561.332L561.331 99.3864H561.686C561.852 99.3864 561.99 99.4674 562.094 99.5982C562.192 99.7139 562.251 99.846 562.251 99.9918ZM582.996 87.0456L584.251 85.0339L584.252 85.0322L584.253 85.0307C584.369 84.856 584.424 84.6744 584.424 84.4832C584.424 84.4419 584.419 84.4166 584.414 84.4028C584.412 84.3967 584.41 84.3939 584.409 84.3929L584.408 84.3919L584.405 84.3893C584.394 84.3797 584.362 84.3627 584.284 84.3626H583.751L583.881 83.8421H586.087L585.957 84.3626H585.471C585.408 84.3626 585.373 84.3814 585.348 84.4101C585.322 84.4461 585.3 84.5055 585.3 84.6039V86.9839L586.518 85.0648L586.519 85.0638L586.546 85.02C586.678 84.8034 586.734 84.6258 586.734 84.4832C586.734 84.4657 586.728 84.4397 586.696 84.4025L586.695 84.4005L586.693 84.3983C586.666 84.3641 586.649 84.3626 586.639 84.3626H586.087L586.136 84.1655L586.217 83.8421H588.423L588.293 84.3626H587.89C587.782 84.3626 587.694 84.3945 587.619 84.4573C587.532 84.5334 587.449 84.6341 587.372 84.7623L587.37 84.7648L584.876 88.719L584.829 88.7929H584.424V85.7867L582.525 88.7929H582.12V84.4937C582.115 84.452 582.107 84.423 582.1 84.4042C582.096 84.3942 582.092 84.3885 582.09 84.3856L582.089 84.3839C582.083 84.3786 582.056 84.3626 581.98 84.3626H581.415L581.546 83.8421H583.751L583.621 84.3626H583.066C583.037 84.3626 583.019 84.3662 583.01 84.3688C583.004 84.3887 582.996 84.4296 582.996 84.5023V87.0456ZM584.741 84.4832C584.741 84.5665 584.733 84.6482 584.717 84.7282L584.741 84.6904V88.3369L584.983 87.9546V84.6039C584.983 84.4586 585.015 84.3235 585.098 84.2156L585.099 84.2133L585.101 84.2111C585.117 84.1922 585.134 84.175 585.151 84.1595H584.624C584.717 84.2437 584.741 84.3693 584.741 84.4832ZM587.052 84.4832C587.052 84.562 587.041 84.6424 587.02 84.7243L587.135 84.5424C587.217 84.4156 587.309 84.3068 587.411 84.2179L587.413 84.2157C587.438 84.1951 587.463 84.1764 587.489 84.1595H586.904C586.916 84.171 586.927 84.1831 586.937 84.1959C587.007 84.2771 587.052 84.3738 587.052 84.4832ZM577.664 84.3056C577.664 84.3406 577.655 84.382 577.647 84.4138L577.646 84.4153L577.646 84.4169L577.614 84.534H577.808L579.21 88.4756H579.231L579.33 88.11L577.914 84.1595H577.621C577.652 84.2045 577.664 84.2564 577.664 84.3056ZM614.16 84.3056C614.16 84.3406 614.151 84.382 614.143 84.4138L614.142 84.4153L614.142 84.4169L614.11 84.534H614.304L615.706 88.4756H615.727L615.826 88.11L614.41 84.1595H614.117C614.148 84.2045 614.16 84.2563 614.16 84.3056ZM619.105 84.2993C619.105 84.3366 619.096 84.3777 619.087 84.4138L619.087 84.4153L619.087 84.4169L618.065 88.1852L618.065 88.1853C618.048 88.2496 618.019 88.311 617.973 88.3614H618.361C618.336 88.3245 618.323 88.2834 618.319 88.2425L618.318 88.2154L618.319 88.1881C618.322 88.1602 618.329 88.1309 618.335 88.1071L618.335 88.1054L618.336 88.1038L618.844 86.244L618.844 86.2414H618.84L619.358 84.3338C619.374 84.2701 619.404 84.2094 619.449 84.1595H619.064C619.092 84.202 619.105 84.2512 619.105 84.2993ZM601.758 60.3934C601.758 60.5402 601.731 60.7002 601.681 60.8718L601.681 60.872L600.279 65.9982L598.024 59.7091H596.412L596.41 59.7169H597.09C597.177 59.7169 597.271 59.7325 597.346 59.7899C597.43 59.8534 597.462 59.946 597.462 60.038C597.462 60.0806 597.45 60.136 597.437 60.1881L597.437 60.1897L597.436 60.1912L595.984 65.5432C595.911 65.8343 595.781 66.0838 595.594 66.2873L595.594 66.2875C595.406 66.4992 595.175 66.6149 594.907 66.6149H594.543L594.541 66.6225H596.956L596.958 66.6149H596.674C596.479 66.6149 596.304 66.565 596.18 66.4378C596.055 66.3111 596.007 66.1346 596.007 65.9383C596.007 65.7809 596.03 65.6212 596.074 65.4598L596.074 65.4595L597.436 60.4988H597.72L599.964 66.8053H600.137L601.771 60.7886V60.7883L601.788 60.7295C601.875 60.439 602.006 60.1987 602.188 60.0172L602.224 59.9822C602.407 59.812 602.616 59.7169 602.848 59.7169H603.212L603.214 59.7091H600.799L600.797 59.7169H601.081C601.278 59.7169 601.455 59.7662 601.582 59.8928C601.708 60.0193 601.758 60.1963 601.758 60.3934Z" fill="black"/>
<path d="M598.714 104.15L602.056 105.816L601.578 109.862L598.714 131.327V104.15Z" fill="black"/>
<path d="M598.737 103.267L602.215 99.8653L604.992 100.183L625.223 103.039L598.737 103.267Z" fill="black"/>
<path d="M600.787 104.864L605.468 105.974L606.896 107.958L616.02 119.621L609.673 113.908L600.787 104.864Z" fill="black"/>
<path d="M597.058 104.784L595.63 109.148L593.012 111.211L583.411 118.193L589.055 112.753L593.012 108.831L597.058 104.784Z" fill="black"/>
<path d="M603.722 98.4367L600.549 101.531L601.554 97.7217L614.407 88.1217L608.086 94.1524L603.722 98.4367Z" fill="black"/>
<path d="M597.058 101.452L592.773 100.183L590.948 98.0403L583.411 88.6785L589.886 94.4539L597.058 101.452Z" fill="black"/>
<path d="M598.869 103.071L595.391 106.473L592.614 106.155L573.018 103.071L598.869 103.071Z" fill="black"/>
<path d="M598.851 103.075L595.154 99.7067L595.63 96.3744L598.962 74.2388L598.851 88.6786V103.075Z" fill="black"/>
<path d="M598.724 106.133L596.82 105.34L595.55 108.831L598.724 131.125V106.133Z" fill="white"/>
<path d="M601.897 103.198L601.237 104.952L604.543 105.935L625.064 102.96L601.897 103.198Z" fill="white"/>
<path d="M598.883 100.024L600.787 100.733L601.58 98.0406L598.883 75.429L598.883 100.024Z" fill="white"/>
<path d="M595.947 103.198L596.582 101.135L593.091 100.262L573.335 102.96L595.947 103.198Z" fill="white"/>
<circle cx="598.883" cy="103.118" r="2.93554" fill="black" stroke="black" stroke-width="0.158678"/>
<defs>
<filter id="filter0_d_2178_171" x="39.1987" y="0" width="660.648" height="453.222" filterUnits="userSpaceOnUse" color-interpolation-filters="sRGB">
<feFlood flood-opacity="0" result="BackgroundImageFix"/>
<feColorMatrix in="SourceAlpha" type="matrix" values="0 0 0 0 0 0 0 0 0 0 0 0 0 0 0 0 0 0 127 0" result="hardAlpha"/>
<feOffset dx="6" dy="4"/>
<feGaussianBlur stdDeviation="2"/>
<feComposite in2="hardAlpha" operator="out"/>
<feColorMatrix type="matrix" values="0 0 0 0 0 0 0 0 0 0 0 0 0 0 0 0 0 0 0.25 0"/>
<feBlend mode="normal" in2="BackgroundImageFix" result="effect1_dropShadow_2178_171"/>
<feBlend mode="normal" in="SourceGraphic" in2="effect1_dropShadow_2178_171" result="shape"/>
</filter>
<filter id="filter1_d_2178_171" x="0" y="0" width="116.342" height="422.848" filterUnits="userSpaceOnUse" color-interpolation-filters="sRGB">
<feFlood flood-opacity="0" result="BackgroundImageFix"/>
<feColorMatrix in="SourceAlpha" type="matrix" values="0 0 0 0 0 0 0 0 0 0 0 0 0 0 0 0 0 0 127 0" result="hardAlpha"/>
<feOffset dx="6" dy="4"/>
<feGaussianBlur stdDeviation="2"/>
<feComposite in2="hardAlpha" operator="out"/>
<feColorMatrix type="matrix" values="0 0 0 0 0 0 0 0 0 0 0 0 0 0 0 0 0 0 0.25 0"/>
<feBlend mode="normal" in2="BackgroundImageFix" result="effect1_dropShadow_2178_171"/>
<feBlend mode="normal" in="SourceGraphic" in2="effect1_dropShadow_2178_171" result="shape"/>
</filter>
<filter id="filter2_g_2178_171" x="1.71054" y="330.999" width="90.9627" height="82.1702" filterUnits="userSpaceOnUse" color-interpolation-filters="sRGB">
<feFlood flood-opacity="0" result="BackgroundImageFix"/>
<feBlend mode="normal" in="SourceGraphic" in2="BackgroundImageFix" result="shape"/>
<feTurbulence type="fractalNoise" baseFrequency="0.96235448122024536 0.96235448122024536" numOctaves="3" seed="4142" />
<feDisplacementMap in="shape" scale="3.0374224185943604" xChannelSelector="R" yChannelSelector="G" result="displacedImage" width="100%" height="100%" />
<feMerge result="effect1_texture_2178_171">
<feMergeNode in="displacedImage"/>
</feMerge>
</filter>
<filter id="filter3_g_2178_171" x="4.10849" y="334.196" width="84.5682" height="76.575" filterUnits="userSpaceOnUse" color-interpolation-filters="sRGB">
<feFlood flood-opacity="0" result="BackgroundImageFix"/>
<feBlend mode="normal" in="SourceGraphic" in2="BackgroundImageFix" result="shape"/>
<feTurbulence type="fractalNoise" baseFrequency="0.96235448122024536 0.96235448122024536" numOctaves="3" seed="4142" />
<feDisplacementMap in="shape" scale="3.0374224185943604" xChannelSelector="R" yChannelSelector="G" result="displacedImage" width="100%" height="100%" />
<feMerge result="effect1_texture_2178_171">
<feMergeNode in="displacedImage"/>
</feMerge>
</filter>
<filter id="filter4_g_2178_171" x="9.7037" y="340.591" width="78.973" height="68.5819" filterUnits="userSpaceOnUse" color-interpolation-filters="sRGB">
<feFlood flood-opacity="0" result="BackgroundImageFix"/>
<feBlend mode="normal" in="SourceGraphic" in2="BackgroundImageFix" result="shape"/>
<feTurbulence type="fractalNoise" baseFrequency="0.96235448122024536 0.96235448122024536" numOctaves="3" seed="4142" />
<feDisplacementMap in="shape" scale="3.0374224185943604" xChannelSelector="R" yChannelSelector="G" result="displacedImage" width="100%" height="100%" />
<feMerge result="effect1_texture_2178_171">
<feMergeNode in="displacedImage"/>
</feMerge>
</filter>
<filter id="filter5_g_2178_171" x="12.9012" y="342.989" width="72.5784" height="66.1839" filterUnits="userSpaceOnUse" color-interpolation-filters="sRGB">
<feFlood flood-opacity="0" result="BackgroundImageFix"/>
<feBlend mode="normal" in="SourceGraphic" in2="BackgroundImageFix" result="shape"/>
<feTurbulence type="fractalNoise" baseFrequency="0.96235448122024536 0.96235448122024536" numOctaves="3" seed="4142" />
<feDisplacementMap in="shape" scale="3.0374224185943604" xChannelSelector="R" yChannelSelector="G" result="displacedImage" width="100%" height="100%" />
<feMerge result="effect1_texture_2178_171">
<feMergeNode in="displacedImage"/>
</feMerge>
</filter>
<filter id="filter6_g_2178_171" x="16.8978" y="348.584" width="68.5819" height="58.9901" filterUnits="userSpaceOnUse" color-interpolation-filters="sRGB">
<feFlood flood-opacity="0" result="BackgroundImageFix"/>
<feBlend mode="normal" in="SourceGraphic" in2="BackgroundImageFix" result="shape"/>
<feTurbulence type="fractalNoise" baseFrequency="0.96235448122024536 0.96235448122024536" numOctaves="3" seed="4142" />
<feDisplacementMap in="shape" scale="3.0374224185943604" xChannelSelector="R" yChannelSelector="G" result="displacedImage" width="100%" height="100%" />
<feMerge result="effect1_texture_2178_171">
<feMergeNode in="displacedImage"/>
</feMerge>
</filter>
</defs>
</svg>
